<?xml version="1.0" standalone="no"?><!DOCTYPE svg PUBLIC "-//W3C//DTD SVG 1.1//EN" "http://www.w3.org/Graphics/SVG/1.1/DTD/svg11.dtd"><svg t="1505573189066" class="icon" style="" viewBox="0 0 1171 1024" version="1.1" xmlns="http://www.w3.org/2000/svg" p-id="1060" xmlns:xlink="http://www.w3.org/1999/xlink" width="146.375" height="128"><defs><style type="text/css"></style></defs><path d="M1097.142857 438.857143q30.285714 0 51.714286 21.428571t21.428571 51.714286-21.428571 51.714286-51.714286 21.428571l-8.571429 0-65.714286 378.285714q-4.571429 26.285714-25.142857 43.428571t-46.857143 17.142857l-731.428571 0q-26.285714 0-46.857143-17.142857t-25.142857-43.428571l-65.714286-378.285714-8.571429 0q-30.285714 0-51.714286-21.428571t-21.428571-51.714286 21.428571-51.714286 51.714286-21.428571l1024 0zm-820 457.142857q14.857143-1.142857 24.857143-12.857143t8.857143-26.571429l-18.285714-237.714286q-1.142857-14.857143-12.857143-24.857143t-26.571429-8.857143-24.857143 12.857143-8.857143 26.571429l18.285714 237.714286q1.142857 14.285714 11.714286 24t24.857143 9.714286l2.857143 0zm234.857143-36.571429l0-237.714286q0-14.857143-10.857143-25.714286t-25.714286-10.857143-25.714286 10.857143-10.857143 25.714286l0 237.714286q0 14.857143 10.857143 25.714286t25.714286 10.857143 25.714286-10.857143 10.857143-25.714286zm219.428571 0l0-237.714286q0-14.857143-10.857143-25.714286t-25.714286-10.857143-25.714286 10.857143-10.857143 25.714286l0 237.714286q0 14.857143 10.857143 25.714286t25.714286 10.857143 25.714286-10.857143 10.857143-25.714286zm201.142857 2.857143l18.285714-237.714286q1.142857-14.857143-8.857143-26.571429t-24.857143-12.857143-26.571429 8.857143-12.857143 24.857143l-18.285714 237.714286q-1.142857 14.857143 8.857143 26.571429t24.857143 12.857143l2.857143 0q14.285714 0 24.857143-9.714286t11.714286-24zm-660.571429-695.428571l-53.142857 235.428571-75.428571 0 57.714286-252q10.857143-50.285714 50.857143-82t91.428571-31.714286l95.428571 0q0-14.857143 10.857143-25.714286t25.714286-10.857143l219.428571 0q14.857143 0 25.714286 10.857143t10.857143 25.714286l95.428571 0q51.428571 0 91.428571 31.714286t50.857143 82l57.714286 252-75.428571 0-53.142857-235.428571q-6.285714-25.142857-26-41.142857t-45.428571-16l-95.428571 0q0 14.857143-10.857143 25.714286t-25.714286 10.857143l-219.428571 0q-14.857143 0-25.714286-10.857143t-10.857143-25.714286l-95.428571 0q-25.714286 0-45.428571 16t-26 41.142857z" p-id="1061" fill="#00a854"></path></svg>