<?xml version="1.0" standalone="no"?><!DOCTYPE svg PUBLIC "-//W3C//DTD SVG 1.1//EN" "http://www.w3.org/Graphics/SVG/1.1/DTD/svg11.dtd"><svg t="1505453179575" class="icon" style="" viewBox="0 0 1024 1024" version="1.1" xmlns="http://www.w3.org/2000/svg" p-id="1996" xmlns:xlink="http://www.w3.org/1999/xlink" width="128" height="128"><defs><style type="text/css"></style></defs><path d="M512 992c-4.196 0-9.231-0.839-13.427-2.517-427.972-185.454-424.615-453.986-423.776-478.322 0.839-132.588 116.644-244.196 254.266-244.196 73.846 0 141.818 32.727 187.972 88.112 46.993-54.546 120-88.112 194.685-88.112 132.588 0 236.644 107.412 237.483 244.196 0.839 24.336 4.196 292.867-423.776 477.483-4.196 2.517-9.231 3.356-13.427 3.356zM329.063 334.098c-101.539 0-187.132 81.398-187.132 177.902 0 0.839 0 1.678 0 2.517-0.839 10.070-9.231 237.483 370.070 406.993 379.3-169.51 370.909-397.762 370.070-406.993 0-0.839 0-1.678 0-2.517 0-101.539-73.007-178.741-170.349-178.741-68.812 0-135.944 38.602-165.315 95.664-5.874 10.909-17.622 17.622-29.371 17.622-12.588 0-23.497-6.713-29.371-17.622-31.888-58.741-92.308-94.825-158.602-94.825z" p-id="1997" fill="#ffffff"></path><path d="M677.315 161.231l-142.657 121.678c0 0 0 0 0 0-0.839 0.839-1.678 0.839-2.517 1.678s-1.678 0.839-2.517 1.678c-0.839 0-1.678 0.839-1.678 0.839s-3.356 1.678-5.035 1.678c-0.839 0-1.678 0.839-1.678 0.839-1.678 0-2.517 0.839-4.196 0.839-0.839 0-2.517 0-3.356 0-0.839 0-1.678 0-3.356 0-0.839 0-1.678 0-2.517 0 0 0-0.839 0-0.839 0-0.839 0-1.678 0-2.517-0.839-0.839 0-1.678 0-1.678-0.839-0.839 0-1.678-0.839-2.517-0.839-3.356-1.678-5.874-3.356-9.231-5.874l-142.657-120.839c-14.266-11.748-15.944-33.566-3.356-47.832 11.748-14.266 33.566-15.944 47.832-3.356l86.434 73.846v-118.322c0-18.461 15.105-33.566 33.566-33.566 18.461 0 33.566 15.105 33.566 33.566v119.161l88.112-74.685c14.266-11.748 35.244-10.070 46.993 4.196 11.748 14.266 10.070 35.244-4.196 46.993z" p-id="1998" fill="#ffffff"></path><path d="M292.979 595.916c-18.461 0-33.566-15.105-33.566-33.566v-74.685c0-18.461 15.105-33.566 33.566-33.566s33.566 15.105 33.566 33.566v74.685c0 18.461-15.105 33.566-33.566 33.566z" p-id="1999" fill="#ffffff"></path><path d="M728.503 547.244c-18.461 0-33.566-15.105-33.566-33.566v-25.175c0-18.461 15.105-33.566 33.566-33.566s33.566 15.105 33.566 33.566v25.175c0 18.461-15.105 33.566-33.566 33.566z" p-id="2000" fill="#ffffff"></path><path d="M512 790.602c-18.461 0-33.566-15.105-33.566-33.566v-41.958c0-18.461 15.105-33.566 33.566-33.566s33.566 15.105 33.566 33.566v41.958c0 18.461-15.105 33.566-33.566 33.566z" p-id="2001" fill="#ffffff"></path></svg>